HIERARCHY
ROOT Hips
{
	OFFSET 0.000000 100.481300 0.000000
	CHANNELS 6 Xposition Yposition Zposition Xrotation Yrotation Zrotation
	JOINT Spine
	{
		OFFSET -0.279200 12.230698 -2.892100
		CHANNELS 3 Xrotation Yrotation Zrotation
		JOINT Spine1
		{
			OFFSET -0.325700 14.269203 -3.374200
			CHANNELS 3 Xrotation Yrotation Zrotation
			JOINT Spine2
			{
				OFFSET -0.372300 16.307602 -0.352600
				CHANNELS 3 Xrotation Yrotation Zrotation
				JOINT Neck
				{
					OFFSET -0.418800 17.814194 8.416900
					CHANNELS 3 Xrotation Yrotation Zrotation
					JOINT Head
					{
						OFFSET 0.000000 7.031097 3.806800
						CHANNELS 3 Xrotation Yrotation Zrotation
						JOINT HeadTop_End
						{
							OFFSET 0.000000 24.646606 12.978600
							CHANNELS 3 Xrotation Yrotation Zrotation
							End Site
							{
								OFFSET 0.000000 27.854965 0.000000
							}
						}
					}
				}
				JOINT LeftShoulder
				{
					OFFSET 16.952999 14.495407 -7.737500
					CHANNELS 3 Xrotation Yrotation Zrotation
					JOINT LeftArm
					{
						OFFSET 9.308998 -2.777710 0.208600
						CHANNELS 3 Xrotation Yrotation Zrotation
						JOINT LeftForeArm
						{
							OFFSET 29.972298 0.000000 0.000000
							CHANNELS 3 Xrotation Yrotation Zrotation
							JOINT LeftHand
							{
								OFFSET 26.026505 0.000000 0.000000
								CHANNELS 3 Xrotation Yrotation Zrotation
								JOINT LeftHandThumb1
								{
									OFFSET 12.240501 -7.147949 9.207150
									CHANNELS 3 Xrotation Yrotation Zrotation
									JOINT LeftHandThumb2
									{
										OFFSET 4.138618 -2.389435 2.389433
										CHANNELS 3 Xrotation Yrotation Zrotation
										JOINT LeftHandThumb3
										{
											OFFSET 2.726913 -1.574387 1.574386
											CHANNELS 3 Xrotation Yrotation Zrotation
											JOINT LeftHandThumb4
											{
												OFFSET 3.941010 -2.275345 2.275342
												CHANNELS 3 Xrotation Yrotation Zrotation
												End Site
												{
													OFFSET -0.005798 5.087799 0.009903
												}
											}
										}
									}
								}
								JOINT LeftHandIndex1
								{
									OFFSET 24.424698 -1.985611 5.953459
									CHANNELS 3 Xrotation Yrotation Zrotation
									JOINT LeftHandIndex2
									{
										OFFSET 6.426697 0.000000 0.000000
										CHANNELS 3 Xrotation Yrotation Zrotation
										JOINT LeftHandIndex3
										{
											OFFSET 5.337898 0.000000 0.000000
											CHANNELS 3 Xrotation Yrotation Zrotation
											JOINT LeftHandIndex4
											{
												OFFSET 4.409401 0.000000 0.000000
												CHANNELS 3 Xrotation Yrotation Zrotation
												End Site
												{
													OFFSET 0.000000 4.409363 0.014373
												}
											}
										}
									}
								}
								JOINT LeftHandMiddle1
								{
									OFFSET 23.810104 0.000000 0.000000
									CHANNELS 3 Xrotation Yrotation Zrotation
									JOINT LeftHandMiddle2
									{
										OFFSET 7.176498 0.000000 0.000000
										CHANNELS 3 Xrotation Yrotation Zrotation
										JOINT LeftHandMiddle3
										{
											OFFSET 6.774902 0.000000 0.000000
											CHANNELS 3 Xrotation Yrotation Zrotation
											JOINT LeftHandMiddle4
											{
												OFFSET 5.403328 0.000000 0.000000
												CHANNELS 3 Xrotation Yrotation Zrotation
												End Site
												{
													OFFSET -0.027702 5.403244 0.017414
												}
											}
										}
									}
								}
								JOINT LeftHandRing1
								{
									OFFSET 22.908401 -0.839279 -6.020567
									CHANNELS 3 Xrotation Yrotation Zrotation
									JOINT LeftHandRing2
									{
										OFFSET 6.337502 0.000000 0.000000
										CHANNELS 3 Xrotation Yrotation Zrotation
										JOINT LeftHandRing3
										{
											OFFSET 5.779297 0.000000 0.000000
											CHANNELS 3 Xrotation Yrotation Zrotation
											JOINT LeftHandRing4
											{
												OFFSET 4.965698 0.000000 0.000000
												CHANNELS 3 Xrotation Yrotation Zrotation
												End Site
												{
													OFFSET 0.000000 4.965668 0.016186
												}
											}
										}
									}
								}
								JOINT LeftHandPinky1
								{
									OFFSET 20.037003 -1.530319 -10.950146
									CHANNELS 3 Xrotation Yrotation Zrotation
									JOINT LeftHandPinky2
									{
										OFFSET 5.254700 0.000000 0.000000
										CHANNELS 3 Xrotation Yrotation Zrotation
										JOINT LeftHandPinky3
										{
											OFFSET 4.810204 0.000000 0.000000
											CHANNELS 3 Xrotation Yrotation Zrotation
											JOINT LeftHandPinky4
											{
												OFFSET 3.647202 0.000000 0.000000
												CHANNELS 3 Xrotation Yrotation Zrotation
												End Site
												{
													OFFSET 0.000000 3.647186 0.011889
												}
											}
										}
									}
								}
							}
						}
					}
				}
				JOINT RightShoulder
				{
					OFFSET -15.141001 14.495407 -7.737500
					CHANNELS 3 Xrotation Yrotation Zrotation
					JOINT RightArm
					{
						OFFSET -9.308998 -2.777710 0.208500
						CHANNELS 3 Xrotation Yrotation Zrotation
						JOINT RightForeArm
						{
							OFFSET -29.972300 0.000000 0.000000
							CHANNELS 3 Xrotation Yrotation Zrotation
							JOINT RightHand
							{
								OFFSET -26.026505 0.000000 0.000000
								CHANNELS 3 Xrotation Yrotation Zrotation
								JOINT RightHandThumb1
								{
									OFFSET -12.240601 -7.148026 9.207092
									CHANNELS 3 Xrotation Yrotation Zrotation
									JOINT RightHandThumb2
									{
										OFFSET -4.138618 -2.389435 2.389433
										CHANNELS 3 Xrotation Yrotation Zrotation
										JOINT RightHandThumb3
										{
											OFFSET -2.726974 -1.574417 1.574421
											CHANNELS 3 Xrotation Yrotation Zrotation
											JOINT RightHandThumb4
											{
												OFFSET -3.941010 -2.275345 2.275343
												CHANNELS 3 Xrotation Yrotation Zrotation
												End Site
												{
													OFFSET 0.005814 5.087799 0.009927
												}
											}
										}
									}
								}
								JOINT RightHandIndex1
								{
									OFFSET -24.424698 -1.985657 5.953444
									CHANNELS 3 Xrotation Yrotation Zrotation
									JOINT RightHandIndex2
									{
										OFFSET -6.426697 0.000000 0.000000
										CHANNELS 3 Xrotation Yrotation Zrotation
										JOINT RightHandIndex3
										{
											OFFSET -5.337898 0.000000 0.000000
											CHANNELS 3 Xrotation Yrotation Zrotation
											JOINT RightHandIndex4
											{
												OFFSET -4.409401 0.000000 0.000000
												CHANNELS 3 Xrotation Yrotation Zrotation
												End Site
												{
													OFFSET 0.000000 4.409363 0.014408
												}
											}
										}
									}
								}
								JOINT RightHandMiddle1
								{
									OFFSET -23.810097 0.000000 0.000000
									CHANNELS 3 Xrotation Yrotation Zrotation
									JOINT RightHandMiddle2
									{
										OFFSET -7.176498 0.000000 0.000000
										CHANNELS 3 Xrotation Yrotation Zrotation
										JOINT RightHandMiddle3
										{
											OFFSET -6.774902 0.000000 0.000000
											CHANNELS 3 Xrotation Yrotation Zrotation
											JOINT RightHandMiddle4
											{
												OFFSET -5.403328 0.000000 0.000000
												CHANNELS 3 Xrotation Yrotation Zrotation
												End Site
												{
													OFFSET 0.027702 5.403244 0.017457
												}
											}
										}
									}
								}
								JOINT RightHandRing1
								{
									OFFSET -22.908302 -0.839325 -6.020576
									CHANNELS 3 Xrotation Yrotation Zrotation
									JOINT RightHandRing2
									{
										OFFSET -6.337502 0.000000 0.000000
										CHANNELS 3 Xrotation Yrotation Zrotation
										JOINT RightHandRing3
										{
											OFFSET -5.779297 0.000000 0.000000
											CHANNELS 3 Xrotation Yrotation Zrotation
											JOINT RightHandRing4
											{
												OFFSET -4.965698 0.000000 0.000000
												CHANNELS 3 Xrotation Yrotation Zrotation
												End Site
												{
													OFFSET 0.000000 4.965668 0.016226
												}
											}
										}
									}
								}
								JOINT RightHandPinky1
								{
									OFFSET -20.037003 -1.530334 -10.950259
									CHANNELS 3 Xrotation Yrotation Zrotation
									JOINT RightHandPinky2
									{
										OFFSET -5.254700 0.000000 0.000000
										CHANNELS 3 Xrotation Yrotation Zrotation
										JOINT RightHandPinky3
										{
											OFFSET -4.810204 0.000000 0.000000
											CHANNELS 3 Xrotation Yrotation Zrotation
											JOINT RightHandPinky4
											{
												OFFSET -3.647202 0.000000 0.000000
												CHANNELS 3 Xrotation Yrotation Zrotation
												End Site
												{
													OFFSET 0.000000 3.647186 0.011917
												}
											}
										}
									}
								}
							}
						}
					}
				}
			}
		}
	}
	JOINT LeftUpLeg
	{
		OFFSET 15.427100 -6.655098 0.678600
		CHANNELS 3 Xrotation Yrotation Zrotation
		JOINT LeftLeg
		{
			OFFSET 4.081073 -39.591068 13.024000
			CHANNELS 3 Xrotation Yrotation Zrotation
			JOINT LeftFoot
			{
				OFFSET -4.081074 -37.707932 -15.979700
				CHANNELS 3 Xrotation Yrotation Zrotation
				JOINT LeftToeBase
				{
					OFFSET 5.346399 -15.068900 20.645000
					CHANNELS 3 Xrotation Yrotation Zrotation
					JOINT LeftToe_End
					{
						OFFSET 2.754700 0.931300 11.300900
						CHANNELS 3 Xrotation Yrotation Zrotation
						End Site
						{
							OFFSET 0.000000 11.669021 0.000000
						}
					}
				}
			}
		}
	}
	JOINT RightUpLeg
	{
		OFFSET -15.569500 -6.655098 0.678600
		CHANNELS 3 Xrotation Yrotation Zrotation
		JOINT RightLeg
		{
			OFFSET -4.081825 -39.591045 13.023800
			CHANNELS 3 Xrotation Yrotation Zrotation
			JOINT RightFoot
			{
				OFFSET 4.081824 -37.707954 -15.979600
				CHANNELS 3 Xrotation Yrotation Zrotation
				JOINT RightToeBase
				{
					OFFSET -5.346400 -15.068900 20.645000
					CHANNELS 3 Xrotation Yrotation Zrotation
					JOINT RightToe_End
					{
						OFFSET -2.754700 0.931300 11.300900
						CHANNELS 3 Xrotation Yrotation Zrotation
						End Site
						{
							OFFSET 0.000000 11.669021 0.000000
						}
					}
				}
			}
		}
	}
}
MOTION
Frames: 4
Frame Time: 0.033333
0.856136 81.293106 -0.376023 -8.374637 -49.051284 -8.662324 1.662010 0.167258 1.445360 3.842709 0.737727 -1.063657 3.823604 0.762125 -1.117755 13.340164 5.110946 1.559529 -10.799239 32.683627 -4.943927 -0.000000 -0.000001 -0.000000 0.733054 1.926526 -11.136721 -24.341225 -2.929250 -38.077290 0.000092 -107.602213 0.000098 -34.809113 -26.532143 -17.931724 -1.540038 3.690195 6.142341 -1.866166 43.684978 23.674247 0.109279 19.429832 12.411097 -0.000001 -0.000000 0.000001 0.000001 0.000000 0.000001 0.000005 0.000005 -0.000037 -0.000002 0.000005 -0.000006 -0.000002 -0.000001 0.000000 -0.000006 -0.001930 0.015983 0.000007 0.001921 -0.015982 -0.000001 -0.000002 0.000000 -0.000001 -0.000002 0.000000 0.000001 0.000000 0.000001 -0.000000 0.000003 -0.000001 0.000001 0.000005 0.000000 0.000001 0.000002 -0.000001 -0.018091 4.054246 0.511064 -0.018085 -4.054254 -0.511064 0.000000 0.000001 0.000002 -0.000000 -0.000000 0.000001 0.442469 0.156371 5.027996 32.435431 13.610741 20.140148 0.000080 107.765359 -0.000082 -21.547640 -7.321480 -17.668069 12.734007 4.104580 4.480646 41.416959 -38.521304 25.777954 12.332946 -18.120174 6.403571 0.000000 0.000002 0.000001 5.640069 -6.824570 79.121922 4.020285 -6.303926 65.023497 1.085849 -3.736208 32.401014 -0.000001 0.000004 -0.000002 5.640071 -6.824570 79.121922 4.020284 -6.303926 65.023497 1.085847 -3.736207 32.401024 0.000003 0.000000 0.000003 5.640063 -6.824569 79.121915 4.020283 -6.303934 65.023490 1.085846 -3.736207 32.401017 -0.000002 -0.000001 -0.000001 5.640071 -6.824571 79.121922 4.020291 -6.303934 65.023497 1.085849 -3.736202 32.401017 0.000003 0.000001 0.000002 -22.521116 7.393869 31.456071 40.266858 -1.887631 -1.575978 -9.716691 3.885610 -20.159102 -0.000120 -0.000003 0.000009 -0.000000 0.000000 0.000000 -11.018881 -5.342042 -18.584269 39.195594 4.458108 -5.563103 -21.053490 -6.538858 19.236885 -0.029683 0.000034 0.000005 0.000000 -0.000002 -0.000000 
0.554850 81.504257 -0.624356 -7.135969 -50.171974 -7.496563 1.750012 0.047219 1.336296 3.988121 0.470623 -1.270958 3.968465 0.495054 -1.325106 13.604259 5.152389 1.283798 -12.007721 33.261348 -5.326363 -0.000001 -0.000000 -0.000000 0.686706 1.722866 -10.409115 -25.284817 -2.354934 -34.715837 -0.000060 -105.693551 -0.000045 -35.183571 -26.327085 -18.186586 -1.540042 3.690196 6.142340 -1.866171 43.684978 23.674245 0.109277 19.429834 12.411098 -0.000000 0.000000 -0.000000 0.000001 -0.000001 0.000004 0.000005 0.000002 -0.000034 0.000004 0.000003 -0.000002 -0.000001 0.000001 -0.000001 -0.000004 -0.001931 0.015985 0.000007 0.001924 -0.015988 0.000001 0.000004 0.000000 -0.000003 0.000002 -0.000001 0.000001 -0.000001 0.000002 -0.000002 0.000004 -0.000001 -0.000002 -0.000002 0.000004 0.000001 0.000001 -0.000000 -0.018093 4.054244 0.511063 -0.018086 -4.054253 -0.511066 0.000002 -0.000001 0.000004 0.000002 0.000003 -0.000001 0.444535 0.507261 4.708706 34.516532 12.620988 20.122210 -0.000060 109.257564 0.000053 -22.469507 -7.289739 -18.969237 12.734007 4.104577 4.480645 41.416956 -38.521300 25.777959 12.332943 -18.120178 6.403566 -0.000000 0.000001 -0.000003 5.640068 -6.824571 79.121922 4.020282 -6.303923 65.023497 1.085849 -3.736207 32.401021 -0.000002 0.000001 -0.000001 5.640068 -6.824570 79.121929 4.020287 -6.303924 65.023497 1.085849 -3.736206 32.401017 -0.000000 -0.000000 -0.000001 5.640063 -6.824567 79.121915 4.020286 -6.303932 65.023490 1.085852 -3.736207 32.401014 0.000003 -0.000000 0.000001 5.640068 -6.824571 79.121929 4.020291 -6.303935 65.023503 1.085849 -3.736200 32.401017 -0.000001 -0.000002 0.000003 -22.433000 8.040702 31.976162 39.401821 -1.363589 -2.263307 -9.482254 3.973060 -20.430701 -0.000036 0.000002 -0.000003 -0.000000 -0.000000 -0.000000 -12.417666 -5.232175 -18.615935 39.023490 6.247647 -5.760591 -21.190324 -6.017420 18.241716 -0.031459 0.000002 0.000002 0.000000 0.000002 -0.000000 
0.354269 81.269165 -0.821292 -5.773954 -51.200498 -6.219390 1.812084 -0.166656 1.263095 4.078311 -0.002041 -1.437602 4.061876 0.023276 -1.486848 13.901969 5.203458 0.935192 -13.209933 33.864676 -5.667814 -0.000000 -0.000000 0.000000 0.638737 1.538727 -9.581983 -26.168381 -1.859902 -30.455592 -0.000129 -102.959918 -0.000138 -35.568845 -25.682162 -18.605927 -1.540042 3.690192 6.142342 -1.866160 43.684975 23.674242 0.109276 19.429829 12.411101 0.000000 -0.000000 0.000000 0.000002 0.000001 0.000004 0.000003 0.000001 -0.000038 -0.000002 0.000003 -0.000004 0.000001 -0.000000 -0.000001 -0.000002 -0.001931 0.015984 0.000004 0.001921 -0.015984 0.000004 -0.000002 0.000000 0.000001 -0.000002 0.000000 0.000002 0.000001 0.000002 -0.000002 0.000002 -0.000001 -0.000001 0.000001 0.000001 0.000001 0.000002 -0.000002 -0.018089 4.054246 0.511066 -0.018089 -4.054253 -0.511062 -0.000001 0.000002 0.000002 -0.000001 0.000002 -0.000002 0.448516 0.867459 4.330265 36.413791 11.619777 19.525325 0.000046 111.109672 -0.000056 -23.254610 -8.105870 -20.402711 12.734009 4.104578 4.480643 41.416963 -38.521307 25.777948 12.332944 -18.120178 6.403564 0.000000 0.000003 -0.000000 5.640070 -6.824570 79.121922 4.020280 -6.303923 65.023490 1.085850 -3.736209 32.401017 -0.000001 0.000002 -0.000003 5.640071 -6.824569 79.121922 4.020287 -6.303928 65.023497 1.085844 -3.736202 32.401017 0.000002 -0.000001 -0.000001 5.640062 -6.824571 79.121915 4.020285 -6.303932 65.023490 1.085843 -3.736206 32.401017 0.000003 0.000001 -0.000002 5.640070 -6.824570 79.121922 4.020293 -6.303933 65.023497 1.085849 -3.736201 32.401017 0.000004 0.000001 0.000003 -22.894325 8.331663 32.491193 39.475071 -1.020268 -2.782070 -9.621769 4.135394 -20.773539 -0.000061 0.000007 -0.000000 -0.000000 0.000000 -0.000000 -14.203607 -4.945692 -18.896825 39.664715 8.088280 -5.812556 -21.684044 -5.584059 17.294167 -0.031600 0.000014 0.000004 0.000000 0.000000 -0.000000 
0.305954 80.126389 -1.029199 -4.842018 -51.799605 -5.274367 1.915954 -0.574581 1.181846 4.236252 -0.897978 -1.546972 4.230636 -0.869902 -1.582751 14.236600 5.265080 0.583425 -14.438159 34.706961 -6.236741 0.000000 -0.000001 -0.000000 0.571127 1.175456 -8.329811 -26.780612 -1.666900 -24.005618 0.000148 -96.459975 0.000133 -38.129459 -23.439567 -20.190087 -1.540044 3.690193 6.142343 -1.866162 43.684971 23.674240 0.109277 19.429831 12.411103 0.000000 0.000000 0.000002 0.000002 -0.000001 0.000002 0.000005 0.000000 -0.000036 -0.000004 0.000001 -0.000001 -0.000001 -0.000000 -0.000001 -0.000002 -0.001932 0.015988 0.000008 0.001920 -0.015985 0.000004 0.000001 -0.000001 -0.000002 0.000003 -0.000003 0.000002 -0.000001 0.000002 -0.000002 0.000002 0.000001 0.000001 0.000002 0.000000 0.000001 -0.000000 0.000001 -0.018093 4.054244 0.511070 -0.018085 -4.054255 -0.511065 -0.000002 0.000001 0.000000 -0.000002 0.000002 -0.000002 0.453673 1.246423 3.812151 37.887339 11.408796 18.088180 -0.000048 112.454926 0.000069 -24.765108 -8.274656 -22.146561 12.734012 4.104575 4.480644 41.416959 -38.521307 25.777952 12.332946 -18.120176 6.403567 0.000000 0.000003 -0.000001 5.640069 -6.824572 79.121922 4.020278 -6.303927 65.023497 1.085852 -3.736203 32.401017 -0.000002 0.000003 -0.000001 5.640068 -6.824572 79.121922 4.020285 -6.303931 65.023490 1.085846 -3.736201 32.401014 -0.000001 -0.000001 0.000002 5.640064 -6.824573 79.121909 4.020278 -6.303934 65.023490 1.085848 -3.736204 32.401017 0.000003 -0.000001 0.000001 5.640070 -6.824571 79.121922 4.020290 -6.303939 65.023490 1.085842 -3.736205 32.401017 0.000002 0.000000 -0.000001 -24.223659 7.843718 32.941412 41.450676 -1.038090 -2.736451 -10.415385 4.419424 -21.367198 -0.000032 -0.000007 0.000008 -0.000000 -0.000000 0.000000 -16.208855 -4.318274 -19.526275 41.982676 9.974496 -5.630741 -23.046865 -5.670938 16.242185 -0.030049 0.000003 -0.000002 -0.000000 0.000001 -0.000000 
